<?xml version="1.0" encoding="UTF-8"?>
<svg id="b" data-name="Layer 2" xmlns="http://www.w3.org/2000/svg" xmlns:xlink="http://www.w3.org/1999/xlink" viewBox="0 0 71 71">
  <defs>
    <clipPath id="d">
      <path d="m19.33-2v53.67h53.67V-2H19.33Zm23.86,10.28c-2.48.45-4.84,1.45-6.87,2.93-2.49-2.1-5.56-3.52-8.93-4.01l.02-.11c2.02-2.14,4.34-3.88,6.92-5.21,3.44,1.43,6.48,3.6,8.94,6.32l-.08.07Z" fill="none"/>
    </clipPath>
    <clipPath id="e">
      <path d="m-2,19.33v53.67h53.67V19.33H-2Zm29.81,10.28h0c-1.05-.19-2.03-.28-2.98-.28s-2,.1-3.03.29c-.3-1.55-.47-3.15-.47-4.79,0-1.46.13-2.89.38-4.28,1.05-.13,2.09-.22,3.12-.22,1.34,0,2.68.11,4.01.32-.32,1.34-.51,2.74-.51,4.18,0,.45.04.9.07,1.35.04.52.11,1.04.19,1.55.03.15.05.31.08.46.11.58.24,1.15.4,1.71-.42-.11-.84-.21-1.27-.29Zm17.1,12.99c-.39.45-.8.89-1.22,1.31l-.99.25-.61-.18-.7-.78c-.45-2.49-1.46-4.84-2.93-6.88,1.31-1.55,2.36-3.33,3.08-5.26,0,0,0,0,0,0,.44-1.17.75-2.39.94-3.66l.11.02c.35.33.69.67,1.02,1.02,1.68,1.77,3.08,3.75,4.19,5.89-1.24,2.99-3.05,5.69-5.29,7.95.79.17,1.6.26,2.42.32Z" fill="none"/>
    </clipPath>
    <clipPath id="f">
      <path d="m19.33,19.33v53.67h53.67V19.33H19.33Zm10.29,29.86c-1.55.31-3.15.47-4.79.47-1.46,0-2.89-.13-4.28-.38-.13-1.05-.22-2.09-.22-3.12,0-1.34.11-2.68.32-4.01,1.34.32,2.74.51,4.18.51,1.26,0,2.49-.14,3.68-.39-.56-.57-1.09-1.16-1.59-1.78.47-.07.95-.14,1.43-.25l.93.27.38.38.26.96c-.38,1.45-.58,2.9-.58,4.3,0,.99.1,2,.29,3.03Zm14.34-20.27l-.78.7c-.45.08-.86.18-1.26.28.05-.18.09-.36.14-.54l-.66.68c-1.84.54-3.53,1.4-5.07,2.52-2.14-1.81-4.7-3.11-7.52-3.75.13.57.28,1.13.46,1.68l-.83.22v.06s-.14-.03-.14-.03c-.02,0-.08-.02-.14-.04l-.8-.7-.17-.58.23-.98c.37-.39.75-.76,1.12-1.11.02.17.07.34.09.5l.31-.88c1.64-1.47,3.45-2.72,5.39-3.73,2.99,1.24,5.68,3.06,7.95,5.3.11-.53.21-1.08.27-1.63l.15-.04.99.25.12.12.09.1.26,1.01-.18.6Zm18.82,14.35l-.07-.08c-.45-2.48-1.45-4.84-2.93-6.87,2.1-2.49,3.52-5.56,4.01-8.93l.11.02c2.14,2.02,3.88,4.34,5.21,6.92-1.43,3.44-3.6,6.48-6.32,8.94Z" fill="none"/>
    </clipPath>
  </defs>
  <g id="c" data-name="Layer 1">
    <g>
      <g>
        <g>
          <circle cx="46.17" cy="24.83" r="21.33" fill="none" stroke="#7a0" stroke-miterlimit="10" stroke-width="7"/>
          <circle cx="46.17" cy="24.83" r="21.33" fill="none" stroke="#fff" stroke-miterlimit="10" stroke-width="5"/>
          <circle cx="46.17" cy="24.83" r="21.33" fill="none" stroke="#7a0" stroke-miterlimit="10" stroke-width="4"/>
        </g>
        <g>
          <circle cx="24.83" cy="46.17" r="21.33" fill="none" stroke="#7a0" stroke-miterlimit="10" stroke-width="7"/>
          <circle cx="24.83" cy="46.17" r="21.33" fill="none" stroke="#fff" stroke-miterlimit="10" stroke-width="5"/>
          <circle cx="24.83" cy="46.17" r="21.33" fill="none" stroke="#7a0" stroke-miterlimit="10" stroke-width="4"/>
        </g>
        <g>
          <circle cx="46.17" cy="46.17" r="21.33" fill="none" stroke="#7a0" stroke-miterlimit="10" stroke-width="7"/>
          <circle cx="46.17" cy="46.17" r="21.33" fill="none" stroke="#fff" stroke-miterlimit="10" stroke-width="5"/>
          <circle cx="46.17" cy="46.17" r="21.33" fill="none" stroke="#7a0" stroke-miterlimit="10" stroke-width="4"/>
        </g>
      </g>
      <g>
        <circle cx="24.83" cy="24.83" r="21.33" fill="none" stroke="#7a0" stroke-miterlimit="10" stroke-width="7"/>
        <circle cx="24.83" cy="24.83" r="21.33" fill="none" stroke="#fff" stroke-miterlimit="10" stroke-width="5"/>
        <circle cx="24.83" cy="24.83" r="21.33" fill="none" stroke="#7a0" stroke-miterlimit="10" stroke-width="4"/>
      </g>
      <g clip-path="url(#d)">
        <g>
          <circle cx="46.17" cy="24.83" r="21.33" fill="none" stroke="#7a0" stroke-miterlimit="10" stroke-width="7"/>
          <circle cx="46.17" cy="24.83" r="21.33" fill="none" stroke="#fff" stroke-miterlimit="10" stroke-width="5"/>
          <circle cx="46.17" cy="24.83" r="21.33" fill="none" stroke="#7a0" stroke-miterlimit="10" stroke-width="4"/>
        </g>
      </g>
      <g clip-path="url(#e)">
        <g>
          <circle cx="24.83" cy="46.17" r="21.33" fill="none" stroke="#7a0" stroke-miterlimit="10" stroke-width="7"/>
          <circle cx="24.83" cy="46.17" r="21.33" fill="none" stroke="#fff" stroke-miterlimit="10" stroke-width="5"/>
          <circle cx="24.83" cy="46.17" r="21.33" fill="none" stroke="#7a0" stroke-miterlimit="10" stroke-width="4"/>
        </g>
      </g>
      <g clip-path="url(#f)">
        <g>
          <circle cx="46.17" cy="46.17" r="21.33" fill="none" stroke="#7a0" stroke-miterlimit="10" stroke-width="7"/>
          <circle cx="46.17" cy="46.17" r="21.33" fill="none" stroke="#fff" stroke-miterlimit="10" stroke-width="5"/>
          <circle cx="46.17" cy="46.17" r="21.33" fill="none" stroke="#7a0" stroke-miterlimit="10" stroke-width="4"/>
        </g>
      </g>
    </g>
  </g>
</svg>